<svg xmlns="http://www.w3.org/2000/svg" viewBox="0 0 120 120" role="img" aria-label="개구리 꼬마"><defs><radialGradient id="frog2v99dcf2" cx=".4" cy=".32" r=".78" fx=".34" fy=".22"><stop offset="0" stop-color="#c8ecf8"/><stop offset=".34" stop-color="#a7e1f4"/><stop offset=".7" stop-color="#99dcf2"/><stop offset="1" stop-color="#78a9c2"/></radialGradient><radialGradient id="frog2v8bd7f0" cx=".4" cy=".32" r=".78" fx=".34" fy=".22"><stop offset="0" stop-color="#c0e9f7"/><stop offset=".34" stop-color="#9bddf2"/><stop offset=".7" stop-color="#8BD7F0"/><stop offset="1" stop-color="#6ea6c1"/></radialGradient><radialGradient id="frog2vecfaff" cx=".4" cy=".32" r=".78" fx=".34" fy=".22"><stop offset="0" stop-color="#f5fcff"/><stop offset=".34" stop-color="#effbff"/><stop offset=".7" stop-color="#ECFAFF"/><stop offset="1" stop-color="#b2becb"/></radialGradient><radialGradient id="frog2-gloss" cx=".5" cy=".5" r=".5"><stop offset="0" stop-color="#fff" stop-opacity=".95"/><stop offset=".55" stop-color="#fff" stop-opacity=".35"/><stop offset="1" stop-color="#fff" stop-opacity="0"/></radialGradient><radialGradient id="frog2v7ccb6b" cx=".4" cy=".32" r=".78" fx=".34" fy=".22"><stop offset="0" stop-color="#b8e3af"/><stop offset=".34" stop-color="#8ed280"/><stop offset=".7" stop-color="#7CCB6B"/><stop offset="1" stop-color="#649d64"/></radialGradient><radialGradient id="frog2-cheek" cx=".5" cy=".5" r=".5"><stop offset="0" stop-color="#FF7E9C" stop-opacity=".75"/><stop offset="1" stop-color="#FF7E9C" stop-opacity="0"/></radialGradient><radialGradient id="frog2v4fbf6a" cx=".4" cy=".32" r=".78" fx=".34" fy=".22"><stop offset="0" stop-color="#a0dcaf"/><stop offset=".34" stop-color="#68c87f"/><stop offset=".7" stop-color="#4FBF6A"/><stop offset="1" stop-color="#449563"/></radialGradient><radialGradient id="frog2-ao" cx=".5" cy=".5" r=".5"><stop offset="0" stop-color="#1D2B22" stop-opacity=".34"/><stop offset=".6" stop-color="#1D2B22" stop-opacity=".12"/><stop offset="1" stop-color="#1D2B22" stop-opacity="0"/></radialGradient></defs><g transform="translate(60 108) scale(1) translate(-60 -108)"><ellipse cx="60" cy="109.5" rx="30" ry="5.5" fill="url(#frog2-ao)"/><g><g><g><g><path d="M76 74 C94 70 106 56 114 44 C118 62 106 86 78 90 Z" fill="url(#frog2v99dcf2)" stroke="#6890aa" stroke-opacity="0.5" stroke-width="0.9" stroke-linejoin="round" opacity=".96"/><path d="M80 82 Q100 70 112 48" stroke="#c5ebf8" stroke-width="1.4" fill="none" opacity=".8"/></g><g><ellipse cx="36" cy="80" rx="4" ry="6" fill="url(#frog2v8bd7f0)" stroke="#608da9" stroke-opacity="0.5" stroke-width="0.9" transform="rotate(40 36 80)"/></g><g><ellipse cx="84" cy="80" rx="4" ry="6" fill="url(#frog2v8bd7f0)" stroke="#608da9" stroke-opacity="0.5" stroke-width="0.9" transform="rotate(-40 84 80)"/></g><g><ellipse cx="60" cy="66" rx="30" ry="28" fill="url(#frog2v8bd7f0)" stroke="#608da9" stroke-opacity="0.5" stroke-width="0.9" /><ellipse cx="60" cy="77.76" rx="19.2" ry="12.32" fill="url(#frog2vecfaff)" /><ellipse cx="47.4" cy="52" rx="9" ry="4.2" fill="url(#frog2-gloss)" opacity="0.85" transform="rotate(-20 47.4 52)"/><circle cx="49.62" cy="49.26" r="2.3" fill="#2F92BC" opacity="0.4"/><ellipse cx="41" cy="76" rx="7.34" ry="4.62" fill="url(#frog2-cheek)"/><ellipse cx="79" cy="76" rx="7.34" ry="4.62" fill="url(#frog2-cheek)"/><g><ellipse cx="48" cy="69" rx="5.44" ry="6.8" fill="#2A2433"/><ellipse cx="48" cy="72.13" rx="3.54" ry="2.04" fill="#7B93D6" opacity=".55"/><circle cx="49.63" cy="66.55" r="2.52" fill="#fff"/><circle cx="45.96" cy="71.58" r="1.02" fill="#fff" opacity=".92"/><ellipse cx="72" cy="69" rx="5.44" ry="6.8" fill="#2A2433"/><ellipse cx="72" cy="72.13" rx="3.54" ry="2.04" fill="#7B93D6" opacity=".55"/><circle cx="73.63" cy="66.55" r="2.52" fill="#fff"/><circle cx="69.96" cy="71.58" r="1.02" fill="#fff" opacity=".92"/></g><path d="M56.77 78.66 q3.23 3.74 6.46 0" stroke="#2A2433" stroke-width="1.96" fill="none" stroke-linecap="round"/><g transform="rotate(-12 63 40)"><path d="M52 40 C52 33.18 74 33.18 74 40 C68.5 43.3 64.98 41.98 63 38.9 C61.02 41.98 57.5 43.3 52 40 Z" fill="url(#frog2v7ccb6b)" stroke="#588760" stroke-opacity="0.5" stroke-width="0.9" stroke-linejoin="round" /><path d="M63 38.9 L63 35.6 M63 37.8 L56.95 37.25 M63 37.8 L69.05 37.25" stroke="#b7e2ae" stroke-width="1" opacity=".9"/></g><g><path d="M60 37 V28" stroke="#2E9E55" stroke-width="2.8" stroke-linecap="round" fill="none"/><path d="M60 30 c-3.6 -7.2 -11.7 -8.1 -13.5 -2.7 c2.7 4.5 9 5.4 13.5 2.7z" fill="url(#frog2v4fbf6a)" stroke="#3f805f" stroke-opacity="0.45" stroke-width="0.7"/><path d="M60 30 q-6.3 -3.6 -11.7 -3.15" stroke="#9edcad" stroke-width="0.92" fill="none" stroke-linecap="round" opacity=".8"/><path d="M60 29 c3.6 -7.2 11.7 -8.1 13.5 -2.7 c-2.7 4.5 -9 5.4 -13.5 2.7z" fill="url(#frog2v4fbf6a)" stroke="#3f805f" stroke-opacity="0.45" stroke-width="0.7"/><path d="M60 29 q6.3 -3.6 11.7 -3.15" stroke="#9edcad" stroke-width="0.92" fill="none" stroke-linecap="round" opacity=".8"/></g></g><g><circle cx="24" cy="50" r="3" fill="#E6F7FF" fill-opacity=".5" stroke="#8FD3EE" stroke-width="1.1"/><circle cx="22.95" cy="48.95" r="0.75" fill="#fff"/></g><g><circle cx="102" cy="36" r="2.4" fill="#E6F7FF" fill-opacity=".5" stroke="#8FD3EE" stroke-width="1.1"/><circle cx="101.16" cy="35.16" r="0.6" fill="#fff"/></g></g></g></g></g></svg>