<svg xmlns="http://www.w3.org/2000/svg" viewBox="0 0 120 120" role="img" aria-label="달팽이 친구"><defs><radialGradient id="snail3vf6cb86" cx=".4" cy=".32" r=".78" fx=".34" fy=".22"><stop offset="0" stop-color="#fae3be"/><stop offset=".34" stop-color="#f7d297"/><stop offset=".7" stop-color="#F6CB86"/><stop offset="1" stop-color="#b99d76"/></radialGradient><radialGradient id="snail3vff9466" cx=".4" cy=".32" r=".78" fx=".34" fy=".22"><stop offset="0" stop-color="#ffc5ac"/><stop offset=".34" stop-color="#ffa37b"/><stop offset=".7" stop-color="#FF9466"/><stop offset="1" stop-color="#bf7760"/></radialGradient><radialGradient id="snail3-gloss" cx=".5" cy=".5" r=".5"><stop offset="0" stop-color="#fff" stop-opacity=".95"/><stop offset=".55" stop-color="#fff" stop-opacity=".35"/><stop offset="1" stop-color="#fff" stop-opacity="0"/></radialGradient><radialGradient id="snail3v4fbf6a" cx=".4" cy=".32" r=".78" fx=".34" fy=".22"><stop offset="0" stop-color="#a0dcaf"/><stop offset=".34" stop-color="#68c87f"/><stop offset=".7" stop-color="#4FBF6A"/><stop offset="1" stop-color="#449563"/></radialGradient><radialGradient id="snail3v2e9e55" cx=".4" cy=".32" r=".78" fx=".34" fy=".22"><stop offset="0" stop-color="#8ecba3"/><stop offset=".34" stop-color="#4bac6d"/><stop offset=".7" stop-color="#2E9E55"/><stop offset="1" stop-color="#2d7e54"/></radialGradient><radialGradient id="snail3vffffff" cx=".4" cy=".32" r=".78" fx=".34" fy=".22"><stop offset="0" stop-color="#ffffff"/><stop offset=".34" stop-color="#ffffff"/><stop offset=".7" stop-color="#FFFFFF"/><stop offset="1" stop-color="#bfc2cb"/></radialGradient><radialGradient id="snail3vffcf4a" cx=".4" cy=".32" r=".78" fx=".34" fy=".22"><stop offset="0" stop-color="#ffe59d"/><stop offset=".34" stop-color="#ffd663"/><stop offset=".7" stop-color="#FFCF4A"/><stop offset="1" stop-color="#bfa04c"/></radialGradient><radialGradient id="snail3vffe2a6" cx=".4" cy=".32" r=".78" fx=".34" fy=".22"><stop offset="0" stop-color="#ffefcf"/><stop offset=".34" stop-color="#ffe6b2"/><stop offset=".7" stop-color="#FFE2A6"/><stop offset="1" stop-color="#bfae8d"/></radialGradient><radialGradient id="snail3-cheek" cx=".5" cy=".5" r=".5"><stop offset="0" stop-color="#FF7E9C" stop-opacity=".75"/><stop offset="1" stop-color="#FF7E9C" stop-opacity="0"/></radialGradient><radialGradient id="snail3-ao" cx=".5" cy=".5" r=".5"><stop offset="0" stop-color="#1D2B22" stop-opacity=".34"/><stop offset=".6" stop-color="#1D2B22" stop-opacity=".12"/><stop offset="1" stop-color="#1D2B22" stop-opacity="0"/></radialGradient></defs><g transform="translate(60 108) scale(1) translate(-60 -108)"><ellipse cx="70" cy="109.5" rx="50" ry="5.5" fill="url(#snail3-ao)"/><g><g><g><g><ellipse cx="107" cy="104" rx="10" ry="4.6" fill="url(#snail3vf6cb86)" stroke="#9b876f" stroke-opacity="0.5" stroke-width="0.9" transform="rotate(-14 107 104)"/></g><path d="M19 104 C19 93 32 90 50 91 C83 92 105 97 113 106 C97 110 32 111 19 104 Z" fill="url(#snail3vf6cb86)" stroke="#9b876f" stroke-opacity="0.5" stroke-width="0.9" stroke-linejoin="round" /><path d="M28 95 Q50 92 99 98" stroke="#fbe5c3" stroke-width="2" fill="none" stroke-linecap="round" opacity=".7"/><ellipse cx="85" cy="72" rx="22" ry="22" fill="url(#snail3vff9466)" stroke="#a0685d" stroke-opacity="0.5" stroke-width="0.9" /><path d="M76.81 55.93L81.35 54.63L86 54.56L90.43 55.7L94.33 57.92L97.47 61.04L99.64 64.8L100.73 68.93L100.7 73.12L99.59 77.09L97.52 80.56L94.67 83.32L91.25 85.19L87.54 86.08L83.8 85.97L80.29 84.9L77.25 82.99L74.87 80.4L73.29 77.35L72.58 74.06L72.76 70.77L73.77 67.72L75.51 65.11L77.82 63.09L80.51 61.79L83.38 61.26L86.21 61.49L88.8 62.44L91 63.99L92.65 66.01L93.69 68.33L94.06 70.76L93.78 73.14L92.92 75.28L91.56 77.06L89.84 78.37L87.9 79.14L85.9 79.37L83.98 79.06L82.29 78.29L80.92 77.14L79.95 75.72L79.42 74.17L79.33 72.61L79.65 71.15" stroke="#bb7560" stroke-width="2.2" fill="none" stroke-linecap="round" opacity=".7"/><path d="M85.88 77.06 C79.94 73.1 82.36 68.48 85.88 71.47 C89.4 68.48 91.82 73.1 85.88 77.06 Z" fill="#FF5C8D" /><ellipse cx="76.64" cy="61.44" rx="6.6" ry="3.3" fill="url(#snail3-gloss)" opacity="0.85" transform="rotate(-20 76.64 61.44)"/><path d="M83 53 c-3.6 -7.2 -11.7 -8.1 -13.5 -2.7 c2.7 4.5 9 5.4 13.5 2.7z" fill="url(#snail3v4fbf6a)" stroke="#3f805f" stroke-opacity="0.45" stroke-width="0.7"/><path d="M83 53 q-6.3 -3.6 -11.7 -3.15" stroke="#9edcad" stroke-width="0.92" fill="none" stroke-linecap="round" opacity=".8"/><path d="M88 52 c3.2 -6.4 10.4 -7.2 12 -2.4 c-2.4 4 -8 4.8 -12 2.4z" fill="url(#snail3v2e9e55)" stroke="#2d6e54" stroke-opacity="0.45" stroke-width="0.7"/><path d="M88 52 q5.6 -3.2 10.4 -2.8" stroke="#8ccaa2" stroke-width="0.84" fill="none" stroke-linecap="round" opacity=".8"/><ellipse cx="70.24" cy="65.23" rx="2.98" ry="2.98" fill="url(#snail3vffffff)" stroke="#a0a3b1" stroke-opacity="0.5" stroke-width="0.9" /><ellipse cx="68.32" cy="68.56" rx="2.98" ry="2.98" fill="url(#snail3vffffff)" stroke="#a0a3b1" stroke-opacity="0.5" stroke-width="0.9" /><ellipse cx="64.47" cy="68.56" rx="2.98" ry="2.98" fill="url(#snail3vffffff)" stroke="#a0a3b1" stroke-opacity="0.5" stroke-width="0.9" /><ellipse cx="62.55" cy="65.23" rx="2.98" ry="2.98" fill="url(#snail3vffffff)" stroke="#a0a3b1" stroke-opacity="0.5" stroke-width="0.9" /><ellipse cx="64.47" cy="61.9" rx="2.98" ry="2.98" fill="url(#snail3vffffff)" stroke="#a0a3b1" stroke-opacity="0.5" stroke-width="0.9" /><ellipse cx="68.32" cy="61.9" rx="2.98" ry="2.98" fill="url(#snail3vffffff)" stroke="#a0a3b1" stroke-opacity="0.5" stroke-width="0.9" /><ellipse cx="66.39" cy="65.23" rx="2.6" ry="2.6" fill="url(#snail3vffcf4a)" stroke="#a0894e" stroke-opacity="0.5" stroke-width="0.9" /><ellipse cx="82.17" cy="53.64" rx="3.55" ry="3.55" fill="url(#snail3vffffff)" stroke="#a0a3b1" stroke-opacity="0.5" stroke-width="0.9" /><ellipse cx="79.88" cy="57.62" rx="3.55" ry="3.55" fill="url(#snail3vffffff)" stroke="#a0a3b1" stroke-opacity="0.5" stroke-width="0.9" /><ellipse cx="75.29" cy="57.62" rx="3.55" ry="3.55" fill="url(#snail3vffffff)" stroke="#a0a3b1" stroke-opacity="0.5" stroke-width="0.9" /><ellipse cx="72.99" cy="53.64" rx="3.55" ry="3.55" fill="url(#snail3vffffff)" stroke="#a0a3b1" stroke-opacity="0.5" stroke-width="0.9" /><ellipse cx="75.29" cy="49.67" rx="3.55" ry="3.55" fill="url(#snail3vffffff)" stroke="#a0a3b1" stroke-opacity="0.5" stroke-width="0.9" /><ellipse cx="79.88" cy="49.67" rx="3.55" ry="3.55" fill="url(#snail3vffffff)" stroke="#a0a3b1" stroke-opacity="0.5" stroke-width="0.9" /><ellipse cx="77.58" cy="53.64" rx="3.11" ry="3.11" fill="url(#snail3vffcf4a)" stroke="#a0894e" stroke-opacity="0.5" stroke-width="0.9" /><ellipse cx="98.26" cy="54.52" rx="3.07" ry="3.07" fill="url(#snail3vffffff)" stroke="#a0a3b1" stroke-opacity="0.5" stroke-width="0.9" /><ellipse cx="96.28" cy="57.95" rx="3.07" ry="3.07" fill="url(#snail3vffffff)" stroke="#a0a3b1" stroke-opacity="0.5" stroke-width="0.9" /><ellipse cx="92.31" cy="57.95" rx="3.07" ry="3.07" fill="url(#snail3vffffff)" stroke="#a0a3b1" stroke-opacity="0.5" stroke-width="0.9" /><ellipse cx="90.33" cy="54.52" rx="3.07" ry="3.07" fill="url(#snail3vffffff)" stroke="#a0a3b1" stroke-opacity="0.5" stroke-width="0.9" /><ellipse cx="92.31" cy="51.08" rx="3.07" ry="3.07" fill="url(#snail3vffffff)" stroke="#a0a3b1" stroke-opacity="0.5" stroke-width="0.9" /><ellipse cx="96.28" cy="51.08" rx="3.07" ry="3.07" fill="url(#snail3vffffff)" stroke="#a0a3b1" stroke-opacity="0.5" stroke-width="0.9" /><ellipse cx="94.3" cy="54.52" rx="2.69" ry="2.69" fill="url(#snail3vffcf4a)" stroke="#a0894e" stroke-opacity="0.5" stroke-width="0.9" /><ellipse cx="106.93" cy="65.88" rx="2.4" ry="2.4" fill="url(#snail3vffffff)" stroke="#a0a3b1" stroke-opacity="0.5" stroke-width="0.9" /><ellipse cx="105.38" cy="68.57" rx="2.4" ry="2.4" fill="url(#snail3vffffff)" stroke="#a0a3b1" stroke-opacity="0.5" stroke-width="0.9" /><ellipse cx="102.28" cy="68.57" rx="2.4" ry="2.4" fill="url(#snail3vffffff)" stroke="#a0a3b1" stroke-opacity="0.5" stroke-width="0.9" /><ellipse cx="100.73" cy="65.88" rx="2.4" ry="2.4" fill="url(#snail3vffffff)" stroke="#a0a3b1" stroke-opacity="0.5" stroke-width="0.9" /><ellipse cx="102.28" cy="63.2" rx="2.4" ry="2.4" fill="url(#snail3vffffff)" stroke="#a0a3b1" stroke-opacity="0.5" stroke-width="0.9" /><ellipse cx="105.38" cy="63.2" rx="2.4" ry="2.4" fill="url(#snail3vffffff)" stroke="#a0a3b1" stroke-opacity="0.5" stroke-width="0.9" /><ellipse cx="103.83" cy="65.88" rx="2.1" ry="2.1" fill="url(#snail3vffcf4a)" stroke="#a0894e" stroke-opacity="0.5" stroke-width="0.9" /><g transform="translate(-10 0)"><ellipse cx="60" cy="83.96" rx="15" ry="9.5" fill="url(#snail3vffe2a6)" stroke="#a09380" stroke-opacity="0.5" stroke-width="0.9" /><ellipse cx="45" cy="88.96" rx="4.6" ry="6.2" fill="url(#snail3vffe2a6)" stroke="#a09380" stroke-opacity="0.5" stroke-width="0.9" transform="rotate(24 45 88.96)"/><ellipse cx="75" cy="89.96" rx="4.6" ry="6.2" fill="url(#snail3vffe2a6)" stroke="#a09380" stroke-opacity="0.5" stroke-width="0.9" transform="rotate(-24 75 89.96)"/><g><g><path d="M50.12 33.2 Q48.62 25.4 44.92 21.2" stroke="#FFE2A6" stroke-width="4.4" stroke-linecap="round" fill="none"/><ellipse cx="44.92" cy="21.2" rx="4.2" ry="4.2" fill="url(#snail3vffe2a6)" stroke="#a09380" stroke-opacity="0.5" stroke-width="0.9" /><circle cx="43.66" cy="19.73" r="1.26" fill="#fff" opacity=".7"/></g><g><path d="M69.88 33.2 Q71.38 25.4 75.08 21.2" stroke="#FFE2A6" stroke-width="4.4" stroke-linecap="round" fill="none"/><ellipse cx="75.08" cy="21.2" rx="4.2" ry="4.2" fill="url(#snail3vffe2a6)" stroke="#a09380" stroke-opacity="0.5" stroke-width="0.9" /><circle cx="73.82" cy="19.73" r="1.26" fill="#fff" opacity=".7"/></g><ellipse cx="60" cy="54" rx="27.3" ry="24.96" fill="url(#snail3vffe2a6)" stroke="#a09380" stroke-opacity="0.5" stroke-width="0.9" /><ellipse cx="49.08" cy="41.02" rx="8.19" ry="3.74" fill="url(#snail3-gloss)" opacity="0.85" transform="rotate(-20 49.08 41.02)"/><circle cx="39.88" cy="56.53" r="1.1" fill="#E9A56F" opacity=".8"/><circle cx="80.12" cy="56.53" r="1.1" fill="#E9A56F" opacity=".8"/><circle cx="41.32" cy="59.03" r="1.1" fill="#E9A56F" opacity=".8"/><ellipse cx="41.8" cy="63.88" rx="7.02" ry="4.42" fill="url(#snail3-cheek)"/><ellipse cx="78.2" cy="63.88" rx="7.02" ry="4.42" fill="url(#snail3-cheek)"/><g><ellipse cx="49.08" cy="57.64" rx="5.2" ry="6.5" fill="#2A2433"/><ellipse cx="49.08" cy="60.63" rx="3.38" ry="1.95" fill="#7B93D6" opacity=".55"/><circle cx="50.64" cy="55.3" r="2.4" fill="#fff"/><circle cx="47.13" cy="60.11" r="0.97" fill="#fff" opacity=".92"/><ellipse cx="70.92" cy="57.64" rx="5.2" ry="6.5" fill="#2A2433"/><ellipse cx="70.92" cy="60.63" rx="3.38" ry="1.95" fill="#7B93D6" opacity=".55"/><circle cx="72.48" cy="55.3" r="2.4" fill="#fff"/><circle cx="68.97" cy="60.11" r="0.97" fill="#fff" opacity=".92"/></g><path d="M56.91 66.67 q3.09 3.58 6.17 0" stroke="#2A2433" stroke-width="1.88" fill="none" stroke-linecap="round"/><g><path d="M60 30 V20" stroke="#2E9E55" stroke-width="2.8" stroke-linecap="round" fill="none"/><path d="M60 22 c-4 -8 -13 -9 -15 -3 c3 5 10 6 15 3z" fill="url(#snail3v4fbf6a)" stroke="#3f805f" stroke-opacity="0.45" stroke-width="0.7"/><path d="M60 22 q-7 -4 -13 -3.5" stroke="#9edcad" stroke-width="1" fill="none" stroke-linecap="round" opacity=".8"/><path d="M60 21 c4 -8 13 -9 15 -3 c-3 5 -10 6 -15 3z" fill="url(#snail3v4fbf6a)" stroke="#3f805f" stroke-opacity="0.45" stroke-width="0.7"/><path d="M60 21 q7 -4 13 -3.5" stroke="#9edcad" stroke-width="1" fill="none" stroke-linecap="round" opacity=".8"/></g></g></g></g></g></g></g></svg>