<svg xmlns="http://www.w3.org/2000/svg" viewBox="0 0 120 120" role="img" aria-label="애벌레 전설"><defs><radialGradient id="worm5v4a66ca" cx=".4" cy=".32" r=".78" fx=".34" fy=".22"><stop offset="0" stop-color="#9dace2"/><stop offset=".34" stop-color="#637bd1"/><stop offset=".7" stop-color="#4A66CA"/><stop offset="1" stop-color="#4157a6"/></radialGradient><radialGradient id="worm5v86a0ee" cx=".4" cy=".32" r=".78" fx=".34" fy=".22"><stop offset="0" stop-color="#beccf6"/><stop offset=".34" stop-color="#97adf0"/><stop offset=".7" stop-color="#86A0EE"/><stop offset="1" stop-color="#6b7fbf"/></radialGradient><radialGradient id="worm5v7d91d9" cx=".4" cy=".32" r=".78" fx=".34" fy=".22"><stop offset="0" stop-color="#b9c4ea"/><stop offset=".34" stop-color="#8fa0de"/><stop offset=".7" stop-color="#7d91d9"/><stop offset="1" stop-color="#6475b1"/></radialGradient><radialGradient id="worm5-gloss" cx=".5" cy=".5" r=".5"><stop offset="0" stop-color="#fff" stop-opacity=".95"/><stop offset=".55" stop-color="#fff" stop-opacity=".35"/><stop offset="1" stop-color="#fff" stop-opacity="0"/></radialGradient><radialGradient id="worm5v74b462" cx=".4" cy=".32" r=".78" fx=".34" fy=".22"><stop offset="0" stop-color="#b4d7aa"/><stop offset=".34" stop-color="#87bf78"/><stop offset=".7" stop-color="#74b462"/><stop offset="1" stop-color="#5e8d5d"/></radialGradient><radialGradient id="worm5v86d466" cx=".4" cy=".32" r=".78" fx=".34" fy=".22"><stop offset="0" stop-color="#bee8ac"/><stop offset=".34" stop-color="#97da7b"/><stop offset=".7" stop-color="#86D466"/><stop offset="1" stop-color="#6ba460"/></radialGradient><radialGradient id="worm5ve3f7cf" cx=".4" cy=".32" r=".78" fx=".34" fy=".22"><stop offset="0" stop-color="#f0fbe5"/><stop offset=".34" stop-color="#e7f8d6"/><stop offset=".7" stop-color="#E3F7CF"/><stop offset="1" stop-color="#acbcaa"/></radialGradient><radialGradient id="worm5vff8fb1" cx=".4" cy=".32" r=".78" fx=".34" fy=".22"><stop offset="0" stop-color="#ffc3d5"/><stop offset=".34" stop-color="#ff9fbc"/><stop offset=".7" stop-color="#FF8FB1"/><stop offset="1" stop-color="#bf7395"/></radialGradient><radialGradient id="worm5-cheek" cx=".5" cy=".5" r=".5"><stop offset="0" stop-color="#FF7E9C" stop-opacity=".75"/><stop offset="1" stop-color="#FF7E9C" stop-opacity="0"/></radialGradient><radialGradient id="worm5v4fbf6a" cx=".4" cy=".32" r=".78" fx=".34" fy=".22"><stop offset="0" stop-color="#a0dcaf"/><stop offset=".34" stop-color="#68c87f"/><stop offset=".7" stop-color="#4FBF6A"/><stop offset="1" stop-color="#449563"/></radialGradient><radialGradient id="worm5vffd45c" cx=".4" cy=".32" r=".78" fx=".34" fy=".22"><stop offset="0" stop-color="#ffe8a7"/><stop offset=".34" stop-color="#ffda73"/><stop offset=".7" stop-color="#FFD45C"/><stop offset="1" stop-color="#bfa459"/></radialGradient><radialGradient id="worm5aD5E1FF" cx=".5" cy=".46" r=".55"><stop offset="0" stop-color="#fff" stop-opacity=".95"/><stop offset=".55" stop-color="#D5E1FF"/><stop offset="1" stop-color="#D5E1FF" stop-opacity="0"/></radialGradient><radialGradient id="worm5-ao" cx=".5" cy=".5" r=".5"><stop offset="0" stop-color="#1D2B22" stop-opacity=".34"/><stop offset=".6" stop-color="#1D2B22" stop-opacity=".12"/><stop offset="1" stop-color="#1D2B22" stop-opacity="0"/></radialGradient></defs><g transform="translate(60 108) scale(1) translate(-60 -108)"><g><circle cx="60" cy="60" r="60" fill="url(#worm5aD5E1FF)"/><g><path d="M16 15 A9 9 0 1 0 16 33 A10.8 10.8 0 0 1 16 15Z" fill="#F7E3A0"/></g><g><path d="M108 14.6L108.96 16.68L111.23 16.95L109.55 18.5L110 20.75L108 19.63L106 20.75L106.45 18.5L104.77 16.95L107.04 16.68Z" fill="#F7C948" stroke="#F7C948" stroke-width="1.02" stroke-linejoin="round" /></g><g><path d="M10 59.2L10.79 60.91L12.66 61.13L11.28 62.42L11.65 64.27L10 63.34L8.35 64.27L8.72 62.42L7.34 61.13L9.21 60.91Z" fill="#F7C948" stroke="#F7C948" stroke-width="0.84" stroke-linejoin="round" /></g><g><path d="M112 59.4L112.73 60.99L114.47 61.2L113.19 62.39L113.53 64.1L112 63.25L110.47 64.1L110.81 62.39L109.53 61.2L111.27 60.99Z" fill="#F7C948" stroke="#F7C948" stroke-width="0.78" stroke-linejoin="round" /></g></g><ellipse cx="60" cy="109.5" rx="39" ry="5.5" fill="url(#worm5-ao)"/><g><g><g><g><ellipse cx="29" cy="60" rx="27" ry="22" fill="url(#worm5v4a66ca)" stroke="#3c4f94" stroke-opacity="0.5" stroke-width="0.9" transform="rotate(18 29 60)"/><ellipse cx="37" cy="94" rx="17" ry="13.5" fill="url(#worm5v86a0ee)" stroke="#5d6fa8" stroke-opacity="0.5" stroke-width="0.9" transform="rotate(-24 37 94)"/><ellipse cx="27" cy="62" rx="17" ry="13" fill="url(#worm5v7d91d9)" stroke="#58679c" stroke-opacity="0.5" stroke-width="0.9" transform="rotate(18 27 62)" opacity=".7"/><path d="M37 61L37.85 62.84L39.85 63.07L38.37 64.44L38.76 66.43L37 65.44L35.24 66.43L35.63 64.44L34.15 63.07L36.15 62.84Z" fill="#FFD95C" stroke="#FFD95C" stroke-width="0.9" stroke-linejoin="round" /><path d="M19 51.8L19.62 53.15L21.09 53.32L20 54.33L20.29 55.78L19 55.06L17.71 55.78L18 54.33L16.91 53.32L18.38 53.15Z" fill="#FFD95C" stroke="#FFD95C" stroke-width="0.66" stroke-linejoin="round" /><path d="M17 67.2L17.51 68.3L18.71 68.44L17.82 69.27L18.06 70.46L17 69.86L15.94 70.46L16.18 69.27L15.29 68.44L16.49 68.3Z" fill="#FFFFFF" stroke="#FFFFFF" stroke-width="0.54" stroke-linejoin="round" /><path d="M34 93.4L34.73 94.99L36.47 95.2L35.19 96.39L35.53 98.1L34 97.25L32.47 98.1L32.81 96.39L31.53 95.2L33.27 94.99Z" fill="#FFD95C" stroke="#FFD95C" stroke-width="0.78" stroke-linejoin="round" /><ellipse cx="29" cy="60" rx="27" ry="22" fill="none" stroke="#a5b3e5" stroke-width="1.6" opacity=".8" transform="rotate(18 29 60)"/><ellipse cx="37" cy="50" rx="6" ry="2.8" fill="url(#worm5-gloss)" opacity="0.7" transform="rotate(18 37 50)"/></g><g><ellipse cx="91" cy="60" rx="27" ry="22" fill="url(#worm5v4a66ca)" stroke="#3c4f94" stroke-opacity="0.5" stroke-width="0.9" transform="rotate(-18 91 60)"/><ellipse cx="83" cy="94" rx="17" ry="13.5" fill="url(#worm5v86a0ee)" stroke="#5d6fa8" stroke-opacity="0.5" stroke-width="0.9" transform="rotate(24 83 94)"/><ellipse cx="93" cy="62" rx="17" ry="13" fill="url(#worm5v7d91d9)" stroke="#58679c" stroke-opacity="0.5" stroke-width="0.9" transform="rotate(-18 93 62)" opacity=".7"/><path d="M83 61L83.85 62.84L85.85 63.07L84.37 64.44L84.76 66.43L83 65.44L81.24 66.43L81.63 64.44L80.15 63.07L82.15 62.84Z" fill="#FFD95C" stroke="#FFD95C" stroke-width="0.9" stroke-linejoin="round" /><path d="M101 51.8L101.62 53.15L103.09 53.32L102 54.33L102.29 55.78L101 55.06L99.71 55.78L100 54.33L98.91 53.32L100.38 53.15Z" fill="#FFD95C" stroke="#FFD95C" stroke-width="0.66" stroke-linejoin="round" /><path d="M103 67.2L103.51 68.3L104.71 68.44L103.82 69.27L104.06 70.46L103 69.86L101.94 70.46L102.18 69.27L101.29 68.44L102.49 68.3Z" fill="#FFFFFF" stroke="#FFFFFF" stroke-width="0.54" stroke-linejoin="round" /><path d="M86 93.4L86.73 94.99L88.47 95.2L87.19 96.39L87.53 98.1L86 97.25L84.47 98.1L84.81 96.39L83.53 95.2L85.27 94.99Z" fill="#FFD95C" stroke="#FFD95C" stroke-width="0.78" stroke-linejoin="round" /><ellipse cx="91" cy="60" rx="27" ry="22" fill="none" stroke="#a5b3e5" stroke-width="1.6" opacity=".8" transform="rotate(-18 91 60)"/><ellipse cx="83" cy="50" rx="6" ry="2.8" fill="url(#worm5-gloss)" opacity="0.7" transform="rotate(-18 83 50)"/></g><ellipse cx="52" cy="104" rx="5.6" ry="3.8" fill="url(#worm5v74b462)" stroke="#537a5b" stroke-opacity="0.5" stroke-width="0.9" /><ellipse cx="68" cy="104" rx="5.6" ry="3.8" fill="url(#worm5v74b462)" stroke="#537a5b" stroke-opacity="0.5" stroke-width="0.9" /><ellipse cx="60" cy="88" rx="16" ry="17" fill="url(#worm5v86d466)" stroke="#5d8c5d" stroke-opacity="0.5" stroke-width="0.9" /><ellipse cx="60" cy="92" rx="10" ry="11" fill="url(#worm5ve3f7cf)" /><ellipse cx="52" cy="80" rx="3.4" ry="2" fill="url(#worm5-gloss)" opacity="0.6" transform="rotate(-20 52 80)"/><g><ellipse cx="44" cy="86" rx="4.4" ry="6.2" fill="url(#worm5v86d466)" stroke="#5d8c5d" stroke-opacity="0.5" stroke-width="0.9" transform="rotate(30 44 86)"/></g><g><ellipse cx="76" cy="86" rx="4.4" ry="6.2" fill="url(#worm5v86d466)" stroke="#5d8c5d" stroke-opacity="0.5" stroke-width="0.9" transform="rotate(-30 76 86)"/></g><g><g><path d="M52.2 27.2 Q50.7 16.8 43.88 11.2" stroke="#669c5f" stroke-width="2.4" stroke-linecap="round" fill="none"/><path d="M43.88 11.2 q-4.5 -3 -4 2.4" stroke="#669c5f" stroke-width="2.4" fill="none" stroke-linecap="round"/><ellipse cx="39.88" cy="14.2" rx="4.6" ry="4.6" fill="url(#worm5vff8fb1)" stroke="#a06686" stroke-opacity="0.5" stroke-width="0.9" /></g><g><path d="M67.8 27.2 Q69.3 16.8 76.12 11.2" stroke="#669c5f" stroke-width="2.4" stroke-linecap="round" fill="none"/><path d="M76.12 11.2 q4.5 -3 4 2.4" stroke="#669c5f" stroke-width="2.4" fill="none" stroke-linecap="round"/><ellipse cx="80.12" cy="14.2" rx="4.6" ry="4.6" fill="url(#worm5vff8fb1)" stroke="#a06686" stroke-opacity="0.5" stroke-width="0.9" /></g><ellipse cx="60" cy="48" rx="27.3" ry="24.96" fill="url(#worm5v86d466)" stroke="#5d8c5d" stroke-opacity="0.5" stroke-width="0.9" /><ellipse cx="49.08" cy="35.02" rx="8.19" ry="3.74" fill="url(#worm5-gloss)" opacity="0.85" transform="rotate(-20 49.08 35.02)"/><circle cx="50" cy="31.88" r="2.3" fill="#FFE27A" opacity="0.9"/><circle cx="70" cy="33.88" r="2.3" fill="#FFE27A" opacity="0.9"/><circle cx="60" cy="26.88" r="2.3" fill="#FFE27A" opacity="0.9"/><circle cx="43" cy="39.88" r="2.3" fill="#FFE27A" opacity="0.9"/><circle cx="77" cy="40.88" r="2.3" fill="#FFE27A" opacity="0.9"/><circle cx="65" cy="35.88" r="2.3" fill="#FFE27A" opacity="0.9"/><ellipse cx="41.8" cy="57.88" rx="7.02" ry="4.42" fill="url(#worm5-cheek)"/><ellipse cx="78.2" cy="57.88" rx="7.02" ry="4.42" fill="url(#worm5-cheek)"/><path d="M39.4 56.48 l-1.4 2.6 M42.4 56.48 l-1.4 2.6" stroke="#FF6F93" stroke-width=".9" stroke-linecap="round" opacity=".7"/><path d="M75.8 56.48 l-1.4 2.6 M78.8 56.48 l-1.4 2.6" stroke="#FF6F93" stroke-width=".9" stroke-linecap="round" opacity=".7"/><path d="M44.01 51.64 q5.07 -6.34 10.14 0 M65.85 51.64 q5.07 -6.34 10.14 0" stroke="#2A2433" stroke-width="2.21" fill="none" stroke-linecap="round"/><path d="M56.42 60.02 Q60 67.17 63.58 60.02 Z" fill="#B8475A" stroke="#2A2433" stroke-width="1.33" stroke-linejoin="round"/><ellipse cx="60" cy="63.44" rx="1.79" ry="1.24" fill="#FF9AAE"/><g transform="translate(76.12 32.4)"><path d="M0 -6.2 A6.2 6.2 0 1 0 0 6.2 A7.44 7.44 0 0 1 0 -6.2Z" fill="#F2B53A"/></g><g><path d="M60 24 V13" stroke="#2E9E55" stroke-width="2.8" stroke-linecap="round" fill="none"/><path d="M60 17 c-3.8 -7.6 -12.35 -8.55 -14.25 -2.85 c2.85 4.75 9.5 5.7 14.25 2.85z" fill="url(#worm5v4fbf6a)" stroke="#3f805f" stroke-opacity="0.45" stroke-width="0.7"/><path d="M60 17 q-6.65 -3.8 -12.35 -3.32" stroke="#9edcad" stroke-width="0.96" fill="none" stroke-linecap="round" opacity=".8"/><path d="M60 16 c3.8 -7.6 12.35 -8.55 14.25 -2.85 c-2.85 4.75 -9.5 5.7 -14.25 2.85z" fill="url(#worm5v4fbf6a)" stroke="#3f805f" stroke-opacity="0.45" stroke-width="0.7"/><path d="M60 16 q6.65 -3.8 12.35 -3.32" stroke="#9edcad" stroke-width="0.96" fill="none" stroke-linecap="round" opacity=".8"/><ellipse cx="60" cy="7.4" rx="2.7" ry="2.7" fill="url(#worm5vff8fb1)" stroke="#a06686" stroke-opacity="0.5" stroke-width="0.9" /><ellipse cx="63.42" cy="9.89" rx="2.7" ry="2.7" fill="url(#worm5vff8fb1)" stroke="#a06686" stroke-opacity="0.5" stroke-width="0.9" /><ellipse cx="62.12" cy="13.91" rx="2.7" ry="2.7" fill="url(#worm5vff8fb1)" stroke="#a06686" stroke-opacity="0.5" stroke-width="0.9" /><ellipse cx="57.88" cy="13.91" rx="2.7" ry="2.7" fill="url(#worm5vff8fb1)" stroke="#a06686" stroke-opacity="0.5" stroke-width="0.9" /><ellipse cx="56.58" cy="9.89" rx="2.7" ry="2.7" fill="url(#worm5vff8fb1)" stroke="#a06686" stroke-opacity="0.5" stroke-width="0.9" /><ellipse cx="60" cy="11" rx="2.1" ry="2.1" fill="url(#worm5vffd45c)" stroke="#a08c58" stroke-opacity="0.5" stroke-width="0.9" /></g></g></g></g></g></g></svg>