<svg xmlns="http://www.w3.org/2000/svg" viewBox="0 0 388 200" role="img" aria-label="꿈틀 Kkumteul"><title>꿈틀 Kkumteul</title><svg x="0" y="10" width="180" height="180" viewBox="0 0 100 100"><defs><linearGradient id="ib1" x1="0" y1="0" x2=".35" y2="1"><stop offset="0" stop-color="#167762"/><stop offset="1" stop-color="#0A4337"/></linearGradient><clipPath id="ib1c"><path d="M28.671999999999997 0 H71.328 C95.52 0 100 4.4799999999999995 100 28.671999999999997 V71.328 C100 95.52 95.52 100 71.328 100 H28.671999999999997 C4.4799999999999995 100 0 95.52 0 71.328 V28.671999999999997 C0 4.4799999999999995 4.4799999999999995 0 28.671999999999997 0 Z"/></clipPath></defs><path d="M28.671999999999997 0 H71.328 C95.52 0 100 4.4799999999999995 100 28.671999999999997 V71.328 C100 95.52 95.52 100 71.328 100 H28.671999999999997 C4.4799999999999995 100 0 95.52 0 71.328 V28.671999999999997 C0 4.4799999999999995 4.4799999999999995 0 28.671999999999997 0 Z" fill="url(#ib1)"/><g clip-path="url(#ib1c)"><g transform="translate(0 2)"><path d="M50 31 C69 31 81 45 81 61 C81 77 67 87 50 87 C33 87 19 77 19 61 C19 45 31 31 50 31 Z" fill="#F5C487"/><ellipse cx="35" cy="45" rx="7.5" ry="4" transform="rotate(-32 35 45)" fill="#fff" opacity=".5"/><ellipse cx="31" cy="69" rx="5.6" ry="3.4" fill="#FF8B86" opacity=".8"/><ellipse cx="69" cy="69" rx="5.6" ry="3.4" fill="#FF8B86" opacity=".8"/><ellipse cx="39.5" cy="60" rx="4.4" ry="5.4" fill="#2B1F18"/><ellipse cx="60.5" cy="60" rx="4.4" ry="5.4" fill="#2B1F18"/><circle cx="41.2" cy="58" r="1.6" fill="#fff"/><circle cx="62.2" cy="58" r="1.6" fill="#fff"/><path d="M45.5 68.5 Q50 73 54.5 68.5" stroke="#2B1F18" stroke-width="2.6" stroke-linecap="round" fill="none"/><path d="M50 31 V22" stroke="#8EE6A6" stroke-width="4.8" stroke-linecap="round"/><path transform="translate(50 21) scale(1)" d="M-1 1 C-8 1 -15 -3 -17 -12 C-8 -13 -2 -8 -1 1 Z" fill="#C6F5A6"/><path transform="translate(50 21) scale(1)" d="M1 0 C2 -9 8 -15 18 -15 C18 -5 11 0 1 0 Z" fill="#8EE6A6"/></g></g></svg><g transform="translate(225.94 35.8) scale(0.66)"><path d="M6 8 H35 Q41 8 41 14 V44" fill="none" stroke="#13201C" stroke-width="14" stroke-linecap="round" stroke-linejoin="round"/><path d="M61 8 H90 Q96 8 96 14 V44" fill="none" stroke="#13201C" stroke-width="14" stroke-linecap="round" stroke-linejoin="round"/><path d="M2 64 H102" fill="none" stroke="#13201C" stroke-width="14" stroke-linecap="round" stroke-linejoin="round"/><path d="M52 64 V82" fill="none" stroke="#13201C" stroke-width="14" stroke-linecap="round" stroke-linejoin="round"/><path d="M22 96 H82 V130 H22 Z" fill="none" stroke="#13201C" stroke-width="14" stroke-linecap="round" stroke-linejoin="round"/><path d="M206 8 H128 V48 H208" fill="none" stroke="#13201C" stroke-width="14" stroke-linecap="round" stroke-linejoin="round"/><path d="M128 28 H200" fill="none" stroke="#13201C" stroke-width="14" stroke-linecap="round" stroke-linejoin="round"/><path d="M120 68 H218" fill="none" stroke="#13201C" stroke-width="14" stroke-linecap="round" stroke-linejoin="round"/><path d="M128 88 H204 Q210 88 210 94 V103 Q210 109 204 109 H134 Q128 109 128 115 V124 Q128 130 134 130 H210" fill="none" stroke="#13201C" stroke-width="14" stroke-linecap="round" stroke-linejoin="round"/><path d="M96 14 V-6" fill="none" stroke="#13201C" stroke-width="14" stroke-linecap="round" stroke-linejoin="round"/><path transform="translate(96 -8) scale(1.25)" d="M-1 1 C-8 1 -15 -3 -17 -12 C-8 -13 -2 -8 -1 1 Z" fill="#8EE6A6"/><path transform="translate(96 -8) scale(1.25)" d="M1 0 C2 -9 8 -15 18 -15 C18 -5 11 0 1 0 Z" fill="#3DB79B"/></g><g transform="translate(222 150) scale(.27)"><path transform="translate(0 0)" d="M0 0 V72 M36 0 L6 36 M16 26 L40 72" fill="none" stroke="#56655F" stroke-width="11" stroke-linecap="round" stroke-linejoin="round"/><path transform="translate(54 0)" d="M0 0 V72 M30 26 L4 50 M13 43 L32 72" fill="none" stroke="#56655F" stroke-width="11" stroke-linecap="round" stroke-linejoin="round"/><path transform="translate(102 0)" d="M0 26 V52 C0 65 7 72 18 72 C29 72 36 65 36 52 V26 M36 52 V72" fill="none" stroke="#56655F" stroke-width="11" stroke-linecap="round" stroke-linejoin="round"/><path transform="translate(154 0)" d="M0 72 V26 M0 44 C0 32 6 26 15 26 C24 26 29 32 29 44 V72 M29 44 C29 32 35 26 44 26 C53 26 58 32 58 44 V72" fill="none" stroke="#56655F" stroke-width="11" stroke-linecap="round" stroke-linejoin="round"/><path transform="translate(228 0)" d="M9 4 V60 C9 68 13 72 20 72 H24 M0 28 H24" fill="none" stroke="#56655F" stroke-width="11" stroke-linecap="round" stroke-linejoin="round"/><path transform="translate(266 0)" d="M3 49 H41 C41 35 33 26 22 26 C10 26 3 36 3 49 C3 63 11 72 23 72 C30 72 36 69 40 63" fill="none" stroke="#56655F" stroke-width="11" stroke-linecap="round" stroke-linejoin="round"/><path transform="translate(324 0)" d="M0 26 V52 C0 65 7 72 18 72 C29 72 36 65 36 52 V26 M36 52 V72" fill="none" stroke="#56655F" stroke-width="11" stroke-linecap="round" stroke-linejoin="round"/><path transform="translate(378 0)" d="M0 0 V62 C0 68 3 72 9 72" fill="none" stroke="#56655F" stroke-width="11" stroke-linecap="round" stroke-linejoin="round"/></g></svg>
